<?xml version="1.0" encoding="utf-8"?>
<!DOCTYPE svg PUBLIC "-//W3C//DTD SVG 1.1//EN" "http://www.w3.org/Graphics/SVG/1.1/DTD/svg11.dtd">
<svg version="1.1" id="Group_2_copy_1_" xmlns="http://www.w3.org/2000/svg" xmlns:xlink="http://www.w3.org/1999/xlink" x="0px"
	 y="0px" viewBox="0 0 946.667 200" enable-background="new 0 0 946.667 200"
	 xml:space="preserve">
<path id="logo" fill="#444444" d="M150.93,41.915h-16.14H84.804h-29.59v9.007h29.59h27.127l-62.86,100.176v5.419h30.487h55.232
	h16.14v-9.007h-16.14H88.069l62.86-100.323V41.915z M81.777,147.51h-9.848l60.521-96.588h9.07L81.777,147.51z"/>
<g>
	<path fill="#444444" d="M500.135,42.349h16.209l-45.9,114.019h-3.57l-37.12-92.32l-37.506,92.32h-3.489L342.999,42.349h16.377
		l31.287,78.261l31.496-78.261h15.364l31.645,78.261L500.135,42.349z"/>
	<path fill="#444444" d="M577.985,40.723c17.541,0,32.146,5.554,43.814,16.66c11.667,11.107,17.502,25.03,17.502,41.771
		c0,16.742-5.888,30.597-17.664,41.569c-11.776,10.971-26.624,16.456-44.545,16.456c-17.109,0-31.363-5.485-42.76-16.456
		c-11.398-10.972-17.096-24.719-17.096-41.244c0-16.957,5.738-30.99,17.218-42.097C545.933,46.277,560.442,40.723,577.985,40.723z
		 M578.636,56.164c-12.992,0-23.668,4.063-32.031,12.19c-8.363,8.126-12.545,18.502-12.545,31.125
		c0,12.245,4.194,22.43,12.585,30.557c8.39,8.126,18.892,12.189,31.503,12.189c12.665,0,23.234-4.145,31.706-12.434
		c8.471-8.289,12.707-18.61,12.707-30.963c0-12.027-4.236-22.146-12.707-30.354C601.382,60.268,590.976,56.164,578.636,56.164z"/>
	<path fill="#444444" d="M659.781,155.88V42.349h28.443c11.485,0,20.602,2.844,27.347,8.533c6.745,5.688,10.118,13.382,10.118,23.08
		c0,6.61-1.653,12.326-4.957,17.147c-3.306,4.823-8.046,8.425-14.223,10.809c3.63,2.385,7.179,5.636,10.646,9.752
		c3.467,4.118,8.343,11.297,14.628,21.536c3.955,6.448,7.124,11.296,9.509,14.547l6.014,8.127h-19.342l-4.951-7.48
		c-0.162-0.271-0.487-0.731-0.974-1.383l-3.166-4.473l-5.032-8.293l-5.437-8.863c-3.355-4.661-6.43-8.372-9.223-11.13
		c-2.794-2.758-5.317-4.746-7.567-5.963c-2.251-1.217-6.034-1.826-11.35-1.826h-4.23v49.411H659.781z M680.911,56.164h-4.876v35.839
		h6.176c8.235,0,13.883-0.704,16.944-2.113c3.061-1.408,5.445-3.535,7.151-6.379c1.707-2.844,2.561-6.081,2.561-9.711
		c0-3.576-0.948-6.813-2.845-9.711c-1.896-2.898-4.564-4.943-8.005-6.136C694.576,56.761,688.875,56.164,680.911,56.164z"/>
	<path fill="#444444" d="M824.028,42.349h20.313l-49.245,53.88l61.354,59.651h-22.185l-58.026-56.075v56.075h-16.254V42.349h16.254
		v51.93L824.028,42.349z"/>
	<path fill="#444444" d="M897.083,108.312l-12.353-7.505c-7.748-4.731-13.261-9.385-16.538-13.964
		c-3.278-4.578-4.917-9.846-4.917-15.807c0-8.939,3.102-16.199,9.306-21.78c6.203-5.58,14.263-8.371,24.177-8.371
		c9.48,0,18.177,2.662,26.087,7.984v18.448c-8.181-7.869-16.984-11.804-26.412-11.804c-5.31,0-9.671,1.228-13.084,3.684
		c-3.413,2.456-5.119,5.599-5.119,9.43c0,3.4,1.257,6.585,3.771,9.553c2.515,2.969,6.558,6.085,12.13,9.35l12.413,7.346
		c13.848,8.272,20.771,18.799,20.771,31.585c0,9.102-3.047,16.497-9.143,22.187c-6.095,5.688-14.019,8.532-23.771,8.532
		c-11.215,0-21.428-3.445-30.638-10.341v-20.643c8.776,11.121,18.936,16.681,30.476,16.681c5.092,0,9.331-1.417,12.718-4.251
		c3.386-2.835,5.079-6.384,5.079-10.649C912.036,121.066,907.051,114.512,897.083,108.312z"/>
</g>
<g>
	<path fill="#444444" d="M171.515,42.349h64.364v14.466h-48.111v34.62h46.485v14.547h-46.485v35.271h49.655v14.466h-65.908V42.349z"
		/>
	<path fill="#444444" d="M253.839,155.88V42.186h36.002c10.835,0,19.477,2.926,25.925,8.777c6.446,5.852,9.671,13.708,9.671,23.568
		c0,6.61-1.653,12.462-4.958,17.554c-3.305,5.093-7.829,8.791-13.571,11.093c-5.743,2.304-13.979,3.454-24.706,3.454h-12.027v49.248
		H253.839z M286.996,56.652h-16.822v35.514h17.798c6.609,0,11.702-1.557,15.278-4.673c3.576-3.115,5.363-7.571,5.363-13.369
		C308.613,62.477,301.407,56.652,286.996,56.652z"/>
</g>
</svg>
